<svg width="80" height="92" viewBox="0 0 80 92" fill="none" xmlns="http://www.w3.org/2000/svg">
<path d="M56.2645 15.4256C54.1131 17.5623 52.294 20.0761 51.0474 22.8458C50.4182 24.2429 49.9102 25.6937 49.6073 27.1973C49.282 28.8113 49.1257 30.4682 48.943 32.1027C48.5737 35.4088 48.2356 38.7413 47.2489 41.9331C46.4517 44.5123 45.2334 46.9401 43.723 49.1735C40.667 53.692 36.4142 57.3479 31.7374 60.1088C26.7206 63.0701 21.1742 64.9507 15.8917 67.36C13.0096 68.674 10.1822 70.1522 7.62742 72.0378C4.92509 74.0318 2.31168 76.4351 1.06212 79.625C1.20183 79.4433 1.34153 79.2625 1.48026 79.0808C-0.748231 80.4974 -0.0291726 83.7732 0.854018 85.7292C1.18131 86.4551 1.50762 87.3041 2.20811 87.7339C2.51879 87.9244 2.84511 88.0935 3.17044 88.2566C6.86538 90.1051 10.9961 91.0254 15.0779 91.4816C23.2318 92.3941 31.5556 91.2257 39.4242 89.0577C48.0813 86.6729 56.3885 83.147 63.2528 77.248C68.4835 72.7529 72.668 67.0776 75.4865 60.7869C77.928 55.3382 79.413 49.4851 79.8634 43.5314C80.2327 38.6563 79.8966 33.7137 78.3188 29.0633C76.2701 23.0236 72.5488 17.2272 67.3004 13.4815C67.1353 13.3632 66.9682 13.247 66.7963 13.1376C66.7728 13.1229 66.7289 13.0819 66.7006 13.077C66.7025 13.077 66.6947 13.0731 66.6947 13.0731C66.767 13.1229 66.8383 13.1717 66.9106 13.2216C66.8559 13.1327 66.8012 13.0428 66.7475 12.9529C66.5687 12.6549 66.3957 12.353 66.2277 12.0482C65.0837 9.97214 64.1956 7.77198 63.4228 5.5347C62.9294 4.10342 62.5396 2.62036 61.9622 1.21937C61.7649 0.740652 61.5216 0.190605 60.9725 0.0372191C60.5759 -0.0741567 60.0854 0.0919358 59.6956 0.175956C58.0983 0.519853 56.5038 0.956564 54.9797 1.54666C54.2216 1.83975 53.4449 2.15825 52.7698 2.61548C52.2129 2.99357 51.9481 3.40195 52.123 4.0702C52.4044 5.1439 52.9193 6.18732 53.3247 7.21803C53.9519 8.8154 54.5665 10.4206 55.094 12.0541C55.5161 13.3613 55.9782 14.8004 55.9987 16.0695C56.0183 17.2409 57.8403 17.2448 57.8208 16.0695C57.7895 14.1224 57.0734 12.1606 56.4374 10.3453C55.7818 8.47345 55.0325 6.63771 54.3144 4.78828C54.2001 4.49519 54.0858 4.20209 53.9832 3.90411C53.9539 3.81911 53.9275 3.73217 53.8982 3.64815C53.8259 3.442 53.9285 3.38827 53.8718 3.6374C53.8855 3.57682 53.5172 4.3164 53.5123 4.31445C53.526 4.32128 53.7595 4.1425 53.7829 4.12784C53.9871 3.99595 54.2011 3.87773 54.417 3.76733C54.8889 3.52699 55.3783 3.32965 55.8756 3.14988C56.9034 2.77668 57.9566 2.47283 59.0176 2.20612C59.4035 2.1094 59.7914 2.01756 60.1802 1.93354C60.3277 1.9013 60.4762 1.87297 60.6237 1.84269C60.8064 1.80556 60.9716 1.86613 60.6775 1.8251C60.6531 1.82119 60.0972 1.70395 60.0913 1.51833C60.0932 1.57792 60.2007 1.7147 60.23 1.77038C60.2535 1.81533 60.3131 1.95699 60.2339 1.77136C60.2652 1.84463 60.2935 1.91889 60.3209 1.99314C60.399 2.20319 60.4733 2.41324 60.5456 2.62524C60.8846 3.62274 61.1943 4.62903 61.5323 5.62653C62.4859 8.43925 63.6006 11.2256 65.1218 13.7833C65.3836 14.2249 65.621 14.5376 66.0274 14.8082C66.1476 14.8883 66.2648 14.9704 66.3821 15.0544C66.4514 15.1032 66.5198 15.154 66.5882 15.2039C66.6478 15.2478 66.9839 15.5048 66.7865 15.3514C67.9198 16.2297 68.9681 17.2174 69.9412 18.2696C73.3675 21.9734 75.7757 26.5495 77.1347 31.3944C77.8772 34.044 78.1156 36.4004 78.1693 39.1702C78.3051 46.2455 76.8182 53.3843 73.9136 59.8675C70.2714 67.997 64.3695 74.9257 56.8702 79.7481C51.9188 82.9321 46.4575 85.0746 40.836 86.756C35.2486 88.4276 29.4854 89.5883 23.6538 89.8872C19.6472 90.0924 15.6035 89.9097 11.6868 89.132C10.2809 88.8535 8.88871 88.5009 7.52484 88.0583C6.99825 87.8873 6.47459 87.7036 5.95776 87.5043C5.74283 87.4213 5.52985 87.3353 5.31687 87.2484C5.08141 87.1517 5.44974 87.3089 5.18889 87.1937C5.08239 87.1468 4.97492 87.0999 4.86843 87.052C4.33109 86.8097 3.79962 86.5498 3.28866 86.2548C3.18021 86.1923 3.07079 86.1297 2.96625 86.0604C2.95257 86.0516 2.93694 86.0438 2.92522 86.034C3.37072 86.4121 2.9516 85.8454 2.89982 85.7516C2.81287 85.5924 2.72884 85.4322 2.64678 85.27C2.46799 84.9134 2.30679 84.5509 2.1749 84.1738C1.88181 83.3356 1.69911 82.3332 1.8818 81.6043C1.90134 81.5272 2.05375 81.111 1.97266 81.2927C2.01956 81.1891 2.07524 81.0914 2.12995 80.9918C2.15926 80.939 2.19639 80.8912 2.22863 80.8404C2.33708 80.6733 2.09186 80.9928 2.21593 80.856C2.27651 80.7886 2.3449 80.7261 2.40449 80.6577C2.59598 80.4369 2.31754 80.7915 2.39863 80.6557C2.46213 80.5502 2.6458 80.4496 2.72591 80.3284C2.8324 80.1662 2.88419 79.9366 2.9643 79.7579C3.16067 79.3202 3.39808 78.9001 3.656 78.4966C4.49327 77.1874 5.60996 76.0717 6.77061 75.0478C11.3097 71.0442 17.0592 68.7678 22.5733 66.4631C28.1333 64.1398 33.5321 61.6368 38.2226 57.7865C42.6961 54.1141 46.395 49.4343 48.4603 43.9974C49.6591 40.8418 50.1476 37.4986 50.5335 34.1612C50.9223 30.7955 51.1128 27.3702 52.4279 24.2067C53.5973 21.394 55.3959 18.8558 57.5521 16.7162C58.3865 15.8868 57.0978 14.5981 56.2645 15.4256Z" fill="#2B2B2B"/>
<path d="M2.47582 81.7108C2.60967 82.0371 2.72398 82.3713 2.81484 82.7132C2.85391 82.8598 2.8881 83.0063 2.91839 83.1548C2.93891 83.2535 2.95748 83.3531 2.97408 83.4518C2.97824 83.4777 2.99258 83.5538 2.99912 83.5867C3.04519 83.8814 3.04939 84.1923 3.05028 84.4884C3.05126 84.6652 3.04638 84.8411 3.03465 85.0179C3.02977 85.0931 3.02391 85.1684 3.01707 85.2436C3.01594 85.2561 3.01184 85.2925 3.00739 85.3322C2.99649 85.4293 2.98343 85.5457 3.00632 85.3765C2.97213 85.6305 2.96236 85.8474 3.09816 86.0789C3.20856 86.2675 3.42545 86.4482 3.64234 86.498C4.07026 86.5957 4.69454 86.3671 4.76293 85.862C4.97494 84.292 4.83621 82.7015 4.23145 81.2262C4.13766 80.9976 4.03508 80.812 3.81233 80.6821C3.61693 80.5677 3.32971 80.5199 3.10989 80.5902C2.68881 80.728 2.28238 81.2389 2.47582 81.7108Z" fill="#2B2B2B"/>
<path d="M2.47582 81.7108C2.60967 82.0371 2.72398 82.3713 2.81484 82.7132C2.85391 82.8598 2.8881 83.0063 2.91839 83.1548C2.93891 83.2535 2.95748 83.3531 2.97408 83.4518C2.97824 83.4777 2.99258 83.5538 2.99912 83.5867C3.04519 83.8814 3.04939 84.1923 3.05028 84.4884C3.05126 84.6652 3.04638 84.8411 3.03465 85.0179C3.02977 85.0931 3.02391 85.1684 3.01707 85.2436C3.01594 85.2561 3.01184 85.2925 3.00739 85.3322C2.99649 85.4293 2.98343 85.5457 3.00632 85.3765C2.97213 85.6305 2.96236 85.8474 3.09816 86.0789C3.20856 86.2675 3.42545 86.4482 3.64234 86.498C4.07026 86.5957 4.69454 86.3671 4.76293 85.862C4.97494 84.292 4.83621 82.7015 4.23145 81.2262C4.13766 80.9976 4.03508 80.812 3.81233 80.6821C3.61693 80.5677 3.32971 80.5199 3.10989 80.5902C2.68881 80.728 2.28238 81.2389 2.47582 81.7108Z" stroke="black"/>
<path d="M59.4768 16.6908C61.0321 16.2024 62.6197 15.8262 64.2278 15.5644C64.6997 15.4872 65.0045 14.8766 64.8639 14.4438C64.6987 13.9328 64.2484 13.7257 63.7433 13.8078C62.1342 14.0696 60.5466 14.4457 58.9922 14.9342C58.5379 15.0769 58.2008 15.5751 58.3562 16.0548C58.5037 16.5111 58.9893 16.8442 59.4768 16.6908Z" fill="#2B2B2B"/>
<path d="M59.4768 16.6908C61.0321 16.2024 62.6197 15.8262 64.2278 15.5644C64.6997 15.4872 65.0045 14.8766 64.8639 14.4438C64.6987 13.9328 64.2484 13.7257 63.7433 13.8078C62.1342 14.0696 60.5466 14.4457 58.9922 14.9342C58.5379 15.0769 58.2008 15.5751 58.3562 16.0548C58.5037 16.5111 58.9893 16.8442 59.4768 16.6908Z" stroke="black"/>
<path d="M58.0396 5.563L60.6101 12.4331C60.782 12.8933 61.2256 13.2079 61.7307 13.0691C62.1732 12.948 62.5406 12.4116 62.3667 11.9485L59.7962 5.07842C59.6243 4.61826 59.1798 4.30367 58.6756 4.4424C58.234 4.56355 57.8667 5.09991 58.0396 5.563Z" fill="#2B2B2B"/>
<path d="M58.0396 5.563L60.6101 12.4331C60.782 12.8933 61.2256 13.2079 61.7307 13.0691C62.1732 12.948 62.5406 12.4116 62.3667 11.9485L59.7962 5.07842C59.6243 4.61826 59.1798 4.30367 58.6756 4.4424C58.234 4.56355 57.8667 5.09991 58.0396 5.563Z" stroke="black"/>
<path d="M65.0192 20.5255C67.4128 33.7977 68.2452 48.3636 61.6935 60.6452C55.7935 71.7046 45.08 79.5136 33.195 83.0747C25.7104 85.3179 17.8349 85.9812 10.0572 85.4077C8.88772 85.3218 8.89261 87.1438 10.0572 87.2298C23.8961 88.2517 38.3544 85.2768 49.6806 76.9725C54.6915 73.2981 59.041 68.7111 62.2436 63.3719C65.7714 57.4915 67.66 50.8422 68.3165 44.0443C69.0903 36.0272 68.2002 27.9359 66.7768 20.0409C66.5687 18.889 64.8121 19.3775 65.0192 20.5255Z" fill="#2B2B2B"/>
<path d="M65.0192 20.5255C67.4128 33.7977 68.2452 48.3636 61.6935 60.6452C55.7935 71.7046 45.08 79.5136 33.195 83.0747C25.7104 85.3179 17.8349 85.9812 10.0572 85.4077C8.88772 85.3218 8.89261 87.1438 10.0572 87.2298C23.8961 88.2517 38.3544 85.2768 49.6806 76.9725C54.6915 73.2981 59.041 68.7111 62.2436 63.3719C65.7714 57.4915 67.66 50.8422 68.3165 44.0443C69.0903 36.0272 68.2002 27.9359 66.7768 20.0409C66.5687 18.889 64.8121 19.3775 65.0192 20.5255Z" stroke="black"/>
<path d="M71.3617 29.6661L71.362 29.671C71.9051 37.3905 72.4642 45.3375 70.1883 52.8498C69.5914 54.8214 68.7981 56.7138 67.783 58.5066C67.2047 59.5285 68.7786 60.4478 69.356 59.4259C73.2404 52.5636 73.8892 44.523 73.6049 36.7932C73.5169 34.4142 73.3508 32.0392 73.1838 29.6651C73.1017 28.5025 71.2787 28.4937 71.3617 29.6661Z" fill="#2B2B2B"/>
<path d="M71.3617 29.6661L71.362 29.671C71.9051 37.3905 72.4642 45.3375 70.1883 52.8498C69.5914 54.8214 68.7981 56.7138 67.783 58.5066C67.2047 59.5285 68.7786 60.4478 69.356 59.4259C73.2404 52.5636 73.8892 44.523 73.6049 36.7932C73.5169 34.4142 73.3508 32.0392 73.1838 29.6651C73.1017 28.5025 71.2787 28.4937 71.3617 29.6661Z" stroke="black"/>
<path d="M8.60934 80.4271C11.9496 77.2275 16.3099 75.508 20.5998 73.9849C25.2561 72.3328 29.8469 70.6681 34.1486 68.1983C36.6682 66.7514 39.0589 65.1012 41.3323 63.2938C41.7202 62.9851 41.6489 62.3286 41.3323 62.0052C40.9562 61.6203 40.4267 61.7004 40.0437 62.0052C36.0361 65.1921 31.5547 67.8378 26.8144 69.778C25.0725 70.491 23.2954 71.1141 21.5184 71.7372C18.8782 72.663 16.2383 73.5886 13.715 74.8085C11.3849 75.935 9.19357 77.3438 7.31972 79.1385C6.47268 79.9513 7.76229 81.238 8.60934 80.4271Z" fill="#2B2B2B"/>
<path d="M8.60934 80.4271C11.9496 77.2275 16.3099 75.508 20.5998 73.9849C25.2561 72.3328 29.8469 70.6681 34.1486 68.1983C36.6682 66.7514 39.0589 65.1012 41.3323 63.2938C41.7202 62.9851 41.6489 62.3286 41.3323 62.0052C40.9562 61.6203 40.4267 61.7004 40.0437 62.0052C36.0361 65.1921 31.5547 67.8378 26.8144 69.778C25.0725 70.491 23.2954 71.1141 21.5184 71.7372C18.8782 72.663 16.2383 73.5886 13.715 74.8085C11.3849 75.935 9.19357 77.3438 7.31972 79.1385C6.47268 79.9513 7.76229 81.238 8.60934 80.4271Z" stroke="black"/>
<path d="M48.1379 55.7164C51.829 51.359 54.373 46.1038 55.4243 40.4852C55.6392 39.3392 53.8826 38.8478 53.6667 40.0007C52.6741 45.3047 50.34 50.3058 46.8483 54.4277C46.096 55.3168 47.3788 56.6122 48.1379 55.7164Z" fill="#2B2B2B"/>
<path d="M48.1379 55.7164C51.829 51.359 54.373 46.1038 55.4243 40.4852C55.6392 39.3392 53.8826 38.8478 53.6667 40.0007C52.6741 45.3047 50.34 50.3058 46.8483 54.4277C46.096 55.3168 47.3788 56.6122 48.1379 55.7164Z" stroke="black"/>
<path d="M55.1048 60.6179C55.6657 60.139 56.1442 59.5402 56.6111 58.9558C56.7281 58.8093 56.8444 58.6638 56.9611 58.5212C57.6088 57.7299 58.239 56.918 58.7949 56.0583C59.8696 54.3955 60.6179 52.5519 60.7928 50.5706C60.8358 50.0801 60.3434 49.6591 59.8813 49.6591C59.3527 49.6591 59.0137 50.0782 58.9707 50.5706C58.8203 52.2813 58.0621 53.8669 57.1281 55.2826C56.6484 56.0085 56.117 56.6953 55.564 57.3655C55.4528 57.5003 55.3422 57.6379 55.231 57.7761C54.7918 58.322 54.3434 58.8794 53.8172 59.3292C53.443 59.6487 53.4889 60.2886 53.8172 60.6179C54.1874 60.9891 54.7297 60.9383 55.1048 60.6179Z" fill="#2B2B2B"/>
<path d="M55.1048 60.6179C55.6657 60.139 56.1442 59.5402 56.6111 58.9558C56.7281 58.8093 56.8444 58.6638 56.9611 58.5212C57.6088 57.7299 58.239 56.918 58.7949 56.0583C59.8696 54.3955 60.6179 52.5519 60.7928 50.5706C60.8358 50.0801 60.3434 49.6591 59.8813 49.6591C59.3527 49.6591 59.0137 50.0782 58.9707 50.5706C58.8203 52.2813 58.0621 53.8669 57.1281 55.2826C56.6484 56.0085 56.117 56.6953 55.564 57.3655C55.4528 57.5003 55.3422 57.6379 55.231 57.7761C54.7918 58.322 54.3434 58.8794 53.8172 59.3292C53.443 59.6487 53.4889 60.2886 53.8172 60.6179C54.1874 60.9891 54.7297 60.9383 55.1048 60.6179Z" stroke="black"/>
</svg>
