<svg width="109" height="100" viewBox="0 0 109 100" fill="none" xmlns="http://www.w3.org/2000/svg">
<path d="M47.8211 24.2198C47.8211 24.9575 48.4191 25.5556 49.1569 25.5556C49.8946 25.5556 50.4926 24.9575 50.4926 24.2198V24.1136C50.4926 23.3759 49.8946 22.7778 49.1569 22.7778C48.4191 22.7778 47.8211 23.3759 47.8211 24.1136V24.2198ZM49.1569 8.88892C46.6438 8.88892 44.5373 10.6906 43.9663 13.1201C43.7976 13.8383 44.4118 14.4445 45.1495 14.4445C45.8872 14.4445 46.458 13.8146 46.7917 13.1567C47.2401 12.2728 48.1337 11.6667 49.1569 11.6667C50.6262 11.6667 51.8284 12.9167 51.8284 14.4445C51.8284 16.9154 48.6575 16.9136 47.957 20.0602C47.7967 20.7803 48.4191 21.3889 49.1569 21.3889C49.8946 21.3889 50.4615 20.7641 50.7621 20.0904C51.6609 18.0757 54.5 17.3671 54.5 14.4445C54.5 11.375 52.1089 8.88892 49.1569 8.88892Z" fill="#2B2B2B"/>
<path d="M90.0319 28.0874C90.0319 28.5301 90.3907 28.8889 90.8333 28.8889C91.276 28.8889 91.6348 28.5301 91.6348 28.0874V28.0237C91.6348 27.5811 91.276 27.2222 90.8333 27.2222C90.3907 27.2222 90.0319 27.5811 90.0319 28.0237V28.0874ZM90.8333 18.8889C89.3255 18.8889 88.0616 19.9699 87.719 21.4276C87.6177 21.8585 87.9863 22.2222 88.4289 22.2222C88.8716 22.2222 89.214 21.8444 89.4142 21.4496C89.6833 20.9192 90.2194 20.5556 90.8333 20.5556C91.7149 20.5556 92.4363 21.3056 92.4363 22.2222C92.4363 23.7048 90.5337 23.7037 90.1134 25.5917C90.0172 26.0237 90.3907 26.3889 90.8333 26.3889C91.276 26.3889 91.6161 26.014 91.7964 25.6098C92.3357 24.401 94.0392 23.9758 94.0392 22.2222C94.0392 20.3806 92.6046 18.8889 90.8333 18.8889Z" fill="#2B2B2B"/>
<path d="M78.0098 14.4869C78.0098 15.0771 77.5314 15.5556 76.9412 15.5556C76.351 15.5556 75.8726 15.0771 75.8726 14.4869V14.402C75.8726 13.8118 76.351 13.3333 76.9412 13.3333C77.5314 13.3333 78.0098 13.8118 78.0098 14.402V14.4869ZM76.9412 2.22223C78.9517 2.22223 80.6369 3.66358 81.0936 5.60717C81.2286 6.1817 80.7373 6.66667 80.1471 6.66667C79.5569 6.66667 79.1003 6.16281 78.8333 5.63647C78.4746 4.92932 77.7597 4.44445 76.9412 4.44445C75.7657 4.44445 74.8039 5.44445 74.8039 6.66667C74.8039 8.64341 77.3406 8.64198 77.9011 11.1592C78.0294 11.7353 77.5314 12.2222 76.9412 12.2222C76.351 12.2222 75.8975 11.7224 75.657 11.1834C74.938 9.57165 72.6667 9.00476 72.6667 6.66667C72.6667 4.21112 74.5795 2.22223 76.9412 2.22223Z" fill="#2B2B2B"/>
<g filter="url(#filter0_d_444_76741)">
<path d="M45.4059 46.4629C37.6099 45.6909 31.6329 49.8339 22.8759 51.2659C16.1109 52.3719 13.5069 51.2109 13.1279 52.9559C12.7489 54.7009 16.4369 56.7249 22.6939 55.1339C32.1079 52.7399 45.4059 46.4629 45.4059 46.4629Z" fill="#F2C40A"/>
<path d="M48.9469 47.5969C48.9469 47.5969 51.9359 54.1949 47.0669 58.2159C42.1979 62.2369 26.0729 71.6389 22.1319 74.6179C18.1909 77.5979 15.9119 82.7129 15.9119 82.7129C15.9119 82.7129 14.9729 84.2689 15.8989 86.3959C17.3369 89.7009 22.2929 90.6319 29.2449 90.7009C37.9739 90.7869 53.1889 87.1659 63.9509 79.2919C78.5269 68.6269 78.7889 57.0729 78.7889 57.0729C78.7889 57.0729 77.7069 53.3859 68.7549 57.1849C59.4479 61.1349 46.4919 66.5229 46.4919 66.5229C46.4919 66.5229 59.4539 54.3909 48.9469 47.5969Z" fill="#FFE800"/>
<path d="M68.7539 57.1859C66.9219 57.9629 64.9489 58.7969 62.9609 59.6329C62.8949 59.8709 62.8509 60.0029 62.8509 60.0029C62.8509 60.0029 69.5009 59.7589 65.6289 65.3049C61.7569 70.8509 47.3869 79.7319 30.2669 83.4889C23.7529 84.9189 19.1509 85.7919 16.1709 86.9169C17.8909 89.7979 22.6729 90.6369 29.2439 90.7019C37.9729 90.7879 53.1879 87.1669 63.9499 79.2929C78.5259 68.6279 78.7879 57.0739 78.7879 57.0739C78.7879 57.0739 77.7049 53.3879 68.7539 57.1859Z" fill="#F2C40A"/>
<path d="M92.8229 54.7789C92.8229 54.7789 93.6559 41.2259 88.9559 41.0569C84.2559 40.8889 82.9429 52.4199 82.9429 52.4199C82.9429 52.4199 89.6909 52.1049 92.8229 54.7789Z" fill="#F2C40A"/>
<path d="M82.9429 52.4198C82.9729 52.0378 82.5479 41.6958 88.9559 41.0568C88.9559 41.0568 86.2299 38.0148 80.5109 37.5698C80.5109 37.5698 81.2609 49.2908 80.0579 52.8228L82.9429 52.4198Z" fill="#F7DF84"/>
<path d="M32.0169 47.8559C32.0169 47.8559 46.3039 39.1379 55.0819 41.2909C55.0819 41.2909 54.7289 46.0939 51.7789 49.8909C51.7789 49.8909 48.6749 42.3569 32.0169 47.8559Z" fill="#F7DF84"/>
<path d="M71.7169 55.9519C71.7169 55.9519 80.7269 50.6079 88.1439 52.8239C95.5609 55.0399 98.6299 62.2859 97.6079 71.1099C96.5859 79.9339 94.4319 85.0999 88.3099 85.2509C82.1889 85.4019 81.0199 78.8099 80.7149 74.6759C80.2489 68.3449 84.4939 53.1679 71.7169 55.9519Z" fill="#F7DF84"/>
<path d="M49.2923 65.4183C48.596 65.6972 47.9785 65.943 47.4564 66.1486L47.3844 66.089L47.2313 65.6999C47.2122 65.7074 47.1933 65.7148 47.1745 65.7222C47.4572 65.3778 47.8107 64.9333 48.2023 64.4101L48.6026 64.7097C48.937 64.2629 49.2991 63.7592 49.669 63.2114L49.2546 62.9316C49.5779 62.4528 49.9071 61.9401 50.2285 61.4024L50.6576 61.659C50.967 61.1413 51.27 60.5999 51.5545 60.0422L51.1092 59.815C51.3835 59.2773 51.6398 58.7252 51.8671 58.1661L52.3303 58.3544C52.567 57.7721 52.7742 57.1793 52.9393 56.5838L52.4574 56.4503C52.6226 55.8546 52.7431 55.2592 52.8062 54.6724L53.3033 54.7258C53.3732 54.0764 53.377 53.4296 53.2958 52.7972L52.7999 52.8609C52.7224 52.2582 52.5626 51.6757 52.3043 51.124L52.7571 50.912C52.6453 50.6733 52.5167 50.4399 52.3702 50.2127C52.4215 50.0783 52.5113 49.883 52.6428 49.605L52.1908 49.3912C52.2188 49.3319 52.2483 49.2698 52.2792 49.2048C52.4832 48.7751 52.7463 48.2209 53.0434 47.534L53.5023 47.7325C53.7419 47.1788 54.0032 46.5399 54.2734 45.812L53.8046 45.638C54.0221 45.0522 54.2454 44.4079 54.4677 43.7028L54.9446 43.8532C55.1386 43.2377 55.3318 42.5769 55.5197 41.8693L55.0364 41.741C55.2021 41.1169 55.3637 40.4558 55.5181 39.7566L56.0063 39.8644C56.1482 39.2216 56.284 38.5471 56.4113 37.8404L55.9192 37.7518C56.0355 37.1062 56.1447 36.4331 56.245 35.7321L56.7399 35.8029C56.7877 35.4686 56.8335 35.128 56.877 34.7811C56.9196 34.4417 56.9623 34.1088 57.0051 33.7823L56.5093 33.7173C56.6005 33.0216 56.6926 32.3547 56.7872 31.7156L57.2818 31.7888C57.3845 31.0948 57.4899 30.435 57.6002 29.8078L57.1078 29.7212C57.2305 29.0233 57.3594 28.3643 57.4974 27.7425L57.9855 27.8508C58.1381 27.1628 58.3012 26.5242 58.4784 25.932L57.9994 25.7886C58.2059 25.0988 58.4322 24.4669 58.6842 23.8894L59.1424 24.0894C59.4185 23.4568 59.7235 22.8995 60.0642 22.4093L59.6537 22.1239C60.0513 21.5519 60.4995 21.059 61.0099 20.6385L61.3278 21.0244C61.7975 20.6375 62.3264 20.3147 62.9284 20.0508L62.7276 19.5929C63.3061 19.3393 63.9438 19.1386 64.6488 18.9862L64.7544 19.4749C65.06 19.4088 65.3802 19.3519 65.7158 19.3038C66.0256 19.2594 66.3348 19.2372 66.6429 19.2361L66.6412 18.7361C67.3061 18.7338 67.9662 18.823 68.6164 18.995L68.4886 19.4784C69.0802 19.6349 69.667 19.8653 70.2449 20.1642L70.4745 19.72C71.0491 20.0172 71.6116 20.3768 72.1582 20.792L71.8557 21.1901C72.3513 21.5666 72.8354 21.9921 73.3045 22.4619L73.6583 22.1086C74.1171 22.568 74.5605 23.0667 74.9857 23.5999L74.5948 23.9116C74.9913 24.4089 75.3724 24.9379 75.7356 25.4945L76.1544 25.2213C76.5122 25.7696 76.8524 26.3434 77.173 26.9387L76.7327 27.1758C77.0384 27.7433 77.3261 28.3313 77.5938 28.9364L78.051 28.7341C78.3179 29.3373 78.5652 29.9568 78.7911 30.5893L78.3203 30.7575C78.5388 31.3695 78.737 31.9939 78.9131 32.6276L79.3948 32.4937C79.5725 33.1332 79.7281 33.7819 79.8599 34.4369L79.3697 34.5355C79.4341 34.8558 79.4928 35.1775 79.5454 35.5003C79.6039 35.8585 79.6577 36.2152 79.7074 36.5698L80.2025 36.5006C80.3051 37.2335 80.3895 37.9577 80.4581 38.6695L79.9604 38.7175C80.0312 39.4515 80.085 40.1724 80.1244 40.8763L80.6237 40.8483C80.6656 41.5969 80.6914 42.326 80.7042 43.0309L80.2043 43.0399C80.2179 43.7917 80.2165 44.5158 80.2038 45.2062L80.7037 45.2154C80.6896 45.9877 80.6615 46.7181 80.6245 47.3984L80.1253 47.3713C80.0822 48.1649 80.0271 48.8895 79.9684 49.5319L80.4663 49.5775C80.3849 50.4676 80.2965 51.2018 80.2228 51.7454L79.7274 51.6783C79.6809 52.0216 79.6405 52.2872 79.6119 52.4663C79.6118 52.4667 79.6117 52.4671 79.6117 52.4675L78.9536 52.7391L79.1443 53.2013C78.6762 53.3944 78.0421 53.656 77.2739 53.9727L77.0833 53.5104L75.2192 54.2787L75.4096 54.741C74.8279 54.9806 74.204 55.2376 73.5456 55.5086L73.3552 55.0463L71.4949 55.8119L71.6852 56.2743C71.0816 56.5227 70.4581 56.7791 69.8192 57.0418L69.6291 56.5793L67.7645 57.3457L67.9545 57.8082C67.3419 58.0598 66.7198 58.3153 66.0917 58.5731L65.9018 58.1106C65.2849 58.3638 64.6621 58.6193 64.0368 58.8757L64.2266 59.3383C63.6063 59.5927 62.9836 59.8479 62.3617 60.1027L62.1722 59.64C61.5484 59.8955 60.9255 60.1506 60.3066 60.4038L60.496 60.8666C59.8687 61.1232 59.2457 61.3779 58.6302 61.6294L58.4411 61.1665C57.8112 61.4238 57.1892 61.6777 56.5788 61.9266L56.7676 62.3896C56.13 62.6496 55.5051 62.9042 54.8969 63.1516L54.7085 62.6885C54.0667 62.9496 53.4435 63.2028 52.844 63.4459L53.0319 63.9093C52.3777 64.1746 51.7515 64.4281 51.1598 64.667L50.9726 64.2033C50.3033 64.4735 49.6781 64.7251 49.1063 64.9541L49.2923 65.4183Z" fill="white" stroke="#2B2B2B" stroke-dasharray="2 2"/>
</g>
<path d="M82.9429 52.4199C82.9429 52.4199 83.5369 43.4739 85.9559 41.9909C89.4969 39.8189 93.0099 41.4879 92.8199 55.1049" stroke="#2B2B2B" stroke-width="1.6418" stroke-miterlimit="10" stroke-linecap="round" stroke-linejoin="round"/>
<path d="M80.5109 37.5709C80.5109 37.5709 87.0119 37.9509 89.9419 41.7419" stroke="#2B2B2B" stroke-width="1.6418" stroke-miterlimit="10" stroke-linecap="round" stroke-linejoin="round"/>
<path d="M48.2379 48.0119C49.1769 50.1159 49.3819 52.4409 48.4859 54.5939C47.7199 56.4359 46.3209 57.9519 44.8319 59.2409C43.4699 60.4199 41.9659 61.4099 40.4659 62.4009C38.1819 63.9119 35.8419 65.2979 33.4389 66.6119C28.4229 69.3549 23.1839 72.0239 19.2039 76.2299C18.1319 77.3629 17.1139 78.6019 16.3809 79.9859C16.2179 80.2939 16.0729 80.6099 15.9389 80.9309C15.8799 81.0729 15.5159 81.7419 15.5869 81.9069C15.5879 81.9099 15.8319 81.6009 15.5719 81.9179C14.5849 83.1179 14.6169 84.7369 15.1459 86.1389C15.3889 86.7809 15.6999 87.3939 16.0679 87.9739C16.3309 88.3889 16.6159 88.9509 17.0289 89.2209C17.1029 89.2689 17.1939 89.3019 17.2729 89.3389C17.8179 89.5909 18.3809 89.8059 18.9499 89.9979C21.2449 90.7719 23.6639 91.1789 26.0719 91.3839C36.1189 92.2399 46.2429 89.3019 55.2949 85.1669C65.4489 80.5289 75.1809 72.6209 78.6959 61.6419C79.1179 60.3239 79.4279 58.9759 79.6289 57.6079C79.6939 57.1659 79.5189 56.7309 79.0559 56.5979C78.6699 56.4869 78.1109 56.7329 78.0459 57.1709C76.4249 68.1779 67.5649 76.9169 58.1189 81.9649C52.7639 84.8269 46.9459 87.0359 41.0379 88.4399C36.8329 89.4389 32.5119 89.9929 28.1849 89.8619C25.5139 89.7809 22.9629 89.4629 20.3829 88.7239C19.6959 88.5269 19.0239 88.2929 18.3579 88.0329C18.1299 87.9439 18.5239 88.1129 18.2389 87.9819C18.1679 87.9489 18.0969 87.9149 18.0239 87.8839C17.8389 87.8059 17.8589 87.7179 17.9999 87.8969C17.2759 86.9809 16.5859 85.7939 16.4329 84.6139C16.3919 84.2939 16.4039 83.9759 16.4519 83.7569C16.4799 83.6309 16.5159 83.5069 16.5599 83.3859C16.6389 83.1709 16.4849 83.5249 16.5839 83.3369C16.6119 83.2849 16.6399 83.2329 16.6689 83.1819C16.6949 83.1369 16.7259 83.0949 16.7539 83.0509C16.8469 82.9069 16.6299 83.1949 16.7319 83.0789C16.7659 83.0399 16.8029 83.0029 16.8379 82.9639C17.0619 82.7159 17.1279 82.4649 17.2299 82.1439C17.6939 80.6939 18.5949 79.4069 19.5779 78.2609C23.3059 73.9159 28.4409 71.1989 33.3939 68.5039C37.4109 66.3179 41.4339 64.0109 45.0429 61.1799C48.2729 58.6469 51.1479 55.0629 50.6619 50.7079C50.5239 49.4699 50.1589 48.3159 49.6529 47.1809C49.2259 46.2199 47.8099 47.0539 48.2379 48.0119Z" fill="#2B2B2B"/>
<path d="M48.3979 47.3219C41.9089 45.2669 32.2869 54.2689 20.1709 55.5059C12.7619 56.2629 11.1699 51.7619 15.0439 51.7439C20.6199 51.7179 25.1219 50.6479 36.9759 47.2309C50.8689 43.2259 59.2919 52.5249 46.4099 66.6139C46.4099 66.6139 59.8479 61.1259 68.8599 57.1389C75.9469 54.0039 81.5919 56.2099 80.9199 65.0879C80.2479 73.9669 80.0249 85.7549 88.3089 85.2499C96.5929 84.7449 97.9929 74.2619 97.6679 65.7739C97.5369 62.3719 95.5529 53.0529 85.7129 52.3949C77.5529 51.8489 68.8609 57.1379 68.8609 57.1379" stroke="#2B2B2B" stroke-width="1.6418" stroke-miterlimit="10" stroke-linecap="round" stroke-linejoin="round"/>
<path d="M55.0819 41.2909C44.9629 38.9229 39.8429 46.5769 19.0889 51.5159" stroke="#2B2B2B" stroke-width="1.6418" stroke-miterlimit="10" stroke-linecap="round" stroke-linejoin="round"/>
<path d="M34.4309 72.6079C37.1639 71.6169 39.9609 70.6959 42.4149 69.0999" stroke="#2B2B2B" stroke-width="1.6418" stroke-miterlimit="10" stroke-linecap="round" stroke-linejoin="round"/>
<path d="M21.1779 80.5079C24.0969 77.6019 27.6619 75.4789 31.4109 73.8209" stroke="#2B2B2B" stroke-width="1.6418" stroke-miterlimit="10" stroke-linecap="round" stroke-linejoin="round"/>
<path d="M50.6379 76.4159C55.1249 74.0039 59.3629 71.1329 63.2909 67.8909" stroke="#2B2B2B" stroke-width="1.6418" stroke-miterlimit="10" stroke-linecap="round" stroke-linejoin="round"/>
<path d="M29.1289 83.6759C34.6229 83.0249 40.0169 81.2969 45.0769 79.1089" stroke="#2B2B2B" stroke-width="1.6418" stroke-miterlimit="10" stroke-linecap="round" stroke-linejoin="round"/>
<path d="M76.1469 55.9779C76.1469 55.9779 75.3239 59.6589 71.3359 65.1419" stroke="#2B2B2B" stroke-width="1.6418" stroke-miterlimit="10" stroke-linecap="round" stroke-linejoin="round"/>
<path d="M17.0319 84.0459C17.1049 84.1809 17.1739 84.3179 17.2379 84.4579C17.2559 84.4979 17.2739 84.5379 17.2919 84.5779C17.2529 84.4829 17.2509 84.4779 17.2859 84.5639C17.3099 84.6249 17.3349 84.6859 17.3579 84.7479C17.4649 85.0359 17.5549 85.3299 17.6249 85.6289C17.6599 85.7779 17.6899 85.9289 17.7159 86.0799C17.7259 86.1419 17.7429 86.2119 17.7459 86.2749C17.7359 86.0519 17.7509 86.3409 17.7549 86.3829C17.7839 86.6889 17.7909 86.9959 17.7819 87.3029C17.7689 87.7329 18.1689 88.1429 18.6029 88.1239C19.0589 88.1029 19.4089 87.7629 19.4239 87.3029C19.4689 85.8819 19.1219 84.4689 18.4509 83.2169C18.2479 82.8379 17.6909 82.6879 17.3279 82.9229C16.9409 83.1709 16.8139 83.6409 17.0319 84.0459Z" fill="#2B2B2B"/>
<defs>
<filter id="filter0_d_444_76741" x="13.1013" y="18.7361" width="88.6976" height="75.9673" filterUnits="userSpaceOnUse" color-interpolation-filters="sRGB">
<feFlood flood-opacity="0" result="BackgroundImageFix"/>
<feColorMatrix in="SourceAlpha" type="matrix" values="0 0 0 0 0 0 0 0 0 0 0 0 0 0 0 0 0 0 127 0" result="hardAlpha"/>
<feOffset dx="4" dy="4"/>
<feComposite in2="hardAlpha" operator="out"/>
<feColorMatrix type="matrix" values="0 0 0 0 0 0 0 0 0 0 0 0 0 0 0 0 0 0 0.8 0"/>
<feBlend mode="normal" in2="BackgroundImageFix" result="effect1_dropShadow_444_76741"/>
<feBlend mode="normal" in="SourceGraphic" in2="effect1_dropShadow_444_76741" result="shape"/>
</filter>
</defs>
</svg>
