<svg width="136" height="136" viewBox="0 0 136 136" fill="none" xmlns="http://www.w3.org/2000/svg">
<g filter="url(#filter0_d_444_63785)">
<path d="M61.3035 106.996C49.1884 105.784 36.9002 100.073 31.0157 89.5151C24.9581 78.7846 26.5158 65.4579 30.6695 54.0351C31.881 57.3235 33.0926 60.7849 34.3041 64.0733C34.6502 65.1118 34.9964 66.1502 36.0348 66.6694C37.4194 67.5348 39.3232 66.8425 40.1886 65.4579C41.0539 64.0733 41.227 62.5157 41.0539 60.958C40.5347 54.2081 36.7271 47.9775 36.554 41.4007C36.381 33.6124 41.227 26.6894 47.2846 21.8434C47.4577 24.6126 48.1499 27.2087 49.0153 29.8048C49.3615 30.8432 49.8807 31.8817 50.9191 32.0547C51.6114 32.0547 52.3037 31.7086 52.8229 31.1894C57.8421 27.0356 60.9574 20.978 61.9958 14.5743C62.515 11.2859 62.515 7.99751 61.8228 4.88219C61.6497 4.18989 60.2651 0.728423 60.6112 0.209203C61.1305 -0.656165 63.8996 1.42072 64.5919 1.76686C75.6686 8.6898 82.9377 21.4972 83.2839 34.4778C83.2839 36.5546 83.63 39.1507 85.5338 39.4969C86.7453 39.67 87.9568 38.9777 88.4761 37.9392C88.9953 36.9008 89.1684 35.6893 89.3414 34.4778C97.3028 41.4007 103.014 50.2274 106.822 59.9196C109.072 65.631 110.629 71.8616 109.418 77.9192C108.38 83.4576 105.61 88.4767 101.976 92.6304C95.5721 99.8995 87.0915 105.611 77.3994 106.476C72.2072 107.169 66.8419 107.342 61.3035 106.996Z" fill="#F95353"/>
<path d="M89.0127 38.2076C89.4122 37.4086 89.6212 36.5252 89.769 35.6588C97.2195 42.3946 102.618 50.8586 106.263 60.139L106.264 60.1395C108.499 65.8149 110.007 71.914 108.83 77.8015L108.828 77.8086C107.813 83.221 105.103 88.1445 101.526 92.2338C95.1833 99.4333 86.8335 105.032 77.346 105.879L77.333 105.88L77.3201 105.882C72.1723 106.568 66.8498 106.74 61.3521 106.397C49.3564 105.195 37.2937 99.5462 31.5398 89.223L31.5382 89.2202C25.88 79.1972 26.9818 66.7964 30.6817 55.8152C31.0948 56.9525 31.5082 58.104 31.9221 59.2569L31.9224 59.2579C32.5268 60.9416 33.1322 62.628 33.7378 64.2719C33.7452 64.2941 33.7526 64.3165 33.7601 64.339C34.0845 65.3142 34.4981 66.5578 35.741 67.1932C37.4748 68.2556 39.7093 67.3568 40.6974 65.7759C41.6548 64.244 41.8321 62.5416 41.6514 60.9019C41.3953 57.594 40.3701 54.4165 39.378 51.342C39.3337 51.2046 39.2894 51.0674 39.2453 50.9305C38.2038 47.6974 37.238 44.5751 37.1538 41.386C36.9954 34.2313 41.2267 27.7653 46.787 23.0319C47.0599 25.4467 47.6926 27.7341 48.4461 29.9945C48.6255 30.5328 48.8656 31.123 49.2246 31.6102C49.5911 32.1077 50.1052 32.5273 50.8205 32.6466L50.8695 32.6547H50.9191C51.7964 32.6547 52.6247 32.227 53.2265 31.6342C58.3601 27.376 61.5311 21.1882 62.5881 14.6703L62.5885 14.6679C63.1171 11.32 63.1201 7.95425 62.4085 4.75203L62.4068 4.74432L62.4048 4.73667C62.3534 4.53079 62.2221 4.15112 62.0788 3.73684L62.0573 3.67472C61.9128 3.25694 61.7459 2.77475 61.5939 2.29837C61.4332 1.79501 61.2951 1.31656 61.2179 0.940387C61.1908 0.808574 61.1734 0.699094 61.1641 0.611817C61.1813 0.615041 61.2003 0.618979 61.2213 0.623777C61.4825 0.683412 61.8403 0.840216 62.2522 1.062C62.6545 1.27861 63.0667 1.534 63.4312 1.7635C63.4786 1.79332 63.5259 1.82321 63.5728 1.85286C63.8515 2.02889 64.1165 2.19628 64.2958 2.28936C75.1866 9.10696 82.3406 21.7168 82.6839 34.486C82.6843 35.5421 82.7711 36.786 83.127 37.83C83.4846 38.879 84.1672 39.8583 85.4265 40.0872L85.4377 40.0892L85.449 40.0909C86.9295 40.3024 88.3842 39.4647 89.0127 38.2076ZM61.1585 0.433169C61.1586 0.433233 61.1584 0.434876 61.1578 0.437904C61.1581 0.434619 61.1584 0.433105 61.1585 0.433169ZM61.0378 0.598612C61.0277 0.602134 61.0212 0.602452 61.0205 0.601731C61.0197 0.60101 61.0248 0.599254 61.0378 0.598612Z" stroke="black" stroke-width="1.2"/>
</g>
<path d="M46.4927 94.7866L46.4927 94.7866L46.4919 94.7815C45.3105 87.6932 47.5037 80.0594 51.5871 74.1045L51.5871 74.1046L51.5915 74.098C51.8033 73.7803 52.0737 73.7146 52.3006 73.7662C52.5449 73.8217 52.8202 74.0357 52.9383 74.4493L52.9408 74.4578L52.9435 74.4664C54.1898 78.3833 56.6724 82.0977 59.6678 85.0931C60.9167 86.342 62.8729 85.5411 63.1091 83.8883L63.1115 83.8709L63.113 83.8533C63.4597 79.6933 64.3208 72.3322 65.6752 68.4318C67.5626 63.4581 70.2803 58.5652 74.4741 55.3779L74.48 55.3734L74.4858 55.3687C74.773 55.139 75.0782 55.1086 75.2974 55.1853C75.5011 55.2566 75.7094 55.4474 75.767 55.8504L75.7682 55.859L75.7697 55.8675C76.6546 61.0002 79.1271 65.7531 81.7257 70.2574L81.7278 70.261C82.1721 71.0188 82.6224 71.774 83.0727 72.5291C85.6279 76.8139 88.1836 81.0996 89.6326 85.8813L89.6382 85.8998L89.645 85.918C91.1552 89.9451 91.3278 94.6605 90.1479 99.0464C89.8321 100.15 89.3654 101.261 88.8743 102.408C85.3458 104.233 81.4985 105.553 77.3304 106.053C74.24 106.396 70.9748 106.568 67.5342 106.568C65.4562 106.568 63.4027 106.568 61.1806 106.397C57.492 106.062 53.7997 105.231 50.1027 103.904C48.2917 101.062 46.9866 97.9148 46.4927 94.7866Z" fill="#FFD550" stroke="black" stroke-width="1.2"/>
<defs>
<filter id="filter0_d_444_63785" x="27" y="0" width="84.8405" height="109.168" filterUnits="userSpaceOnUse" color-interpolation-filters="sRGB">
<feFlood flood-opacity="0" result="BackgroundImageFix"/>
<feColorMatrix in="SourceAlpha" type="matrix" values="0 0 0 0 0 0 0 0 0 0 0 0 0 0 0 0 0 0 127 0" result="hardAlpha"/>
<feOffset dx="2" dy="2"/>
<feComposite in2="hardAlpha" operator="out"/>
<feColorMatrix type="matrix" values="0 0 0 0 0 0 0 0 0 0 0 0 0 0 0 0 0 0 0.8 0"/>
<feBlend mode="normal" in2="BackgroundImageFix" result="effect1_dropShadow_444_63785"/>
<feBlend mode="normal" in="SourceGraphic" in2="effect1_dropShadow_444_63785" result="shape"/>
</filter>
</defs>
</svg>
