<svg width="94" height="108" viewBox="0 0 94 108" fill="none" xmlns="http://www.w3.org/2000/svg">
<g filter="url(#filter0_d_436_129272)">
<path d="M61.6768 18.1558C58.1894 21.5947 55.4196 26.2904 54.68 31.1353C53.9404 35.9791 53.8082 40.9439 52.429 45.6459C49.6842 55.0009 42.1791 62.3907 33.5926 66.9894C24.576 71.8197 13.9792 74.1749 6.61573 81.28C5.13553 82.7079 3.79595 84.3423 3.06887 86.2667C3.06887 86.2667 0.219936 88.0451 3.62825 93.69C3.62825 93.69 19.2198 104.172 50.9238 92.5124C83.9996 80.3475 87.81 47.5109 84.2371 34.473C80.5955 21.1817 71.6195 15.7965 71.6195 15.7965C67.7799 9.66765 66.4716 2.18287 65.7393 1.97322C65.6123 1.93671 59.554 3.19043 57.4769 4.8332C57.2165 5.03972 61.6529 14.5146 61.6768 18.1558Z" fill="#FFE800"/>
<path d="M84.2371 34.473C80.5955 21.1817 71.6195 15.7965 71.6195 15.7965C67.7799 9.66766 66.4716 2.18288 65.7393 1.97323C65.6852 1.95759 63.8195 2.38001 62.3893 2.75967C64.4029 9.8262 71.5362 20.3566 72.5226 31.0685C73.8403 45.3716 74.8372 73.3665 48.3009 85.6837C29.576 94.3752 12.674 93.4104 2.76575 92.0493C2.99595 92.5583 3.26991 93.0975 3.6272 93.6889C3.6272 93.6889 19.2188 104.171 50.9228 92.5113C83.9996 80.3475 87.81 47.5109 84.2371 34.473Z" fill="#F2C40A"/>
</g>
<path d="M60.9894 17.4685C58.6956 19.7496 56.7561 22.4333 55.4269 25.3903C54.7561 26.8818 54.2144 28.4307 53.8915 30.036C53.5446 31.759 53.378 33.528 53.1832 35.273C52.7894 38.8026 52.429 42.3604 51.3769 45.768C50.5269 48.5216 49.228 51.1135 47.6176 53.4979C44.3593 58.3219 39.8249 62.2249 34.8385 65.1725C29.4896 68.3339 23.576 70.3418 17.9438 72.9139C14.8709 74.3167 11.8563 75.8949 9.13239 77.9079C6.25115 80.0367 3.46472 82.6026 2.13244 86.0081C2.28139 85.814 2.43034 85.6211 2.57826 85.4271C0.202233 86.9395 0.968896 90.4368 1.91056 92.5249C2.25951 93.2999 2.60743 94.2063 3.3543 94.6652C3.68555 94.8686 4.03346 95.049 4.38034 95.2232C8.3199 97.1966 12.724 98.1792 17.0761 98.6663C25.7698 99.6405 34.6447 98.393 43.0343 96.0785C52.2644 93.5325 61.1216 89.7682 68.4404 83.4704C74.0174 78.6714 78.4788 72.6124 81.484 65.8964C84.0871 60.0794 85.6705 53.8306 86.1507 47.4744C86.5444 42.2697 86.1861 36.993 84.5038 32.0282C82.3194 25.5801 78.3518 19.3918 72.756 15.3929C72.5799 15.2667 72.4018 15.1425 72.2185 15.0257C72.1935 15.0101 72.1466 14.9663 72.1164 14.9611C72.1185 14.9611 72.1101 14.9569 72.1101 14.9569C72.1872 15.0101 72.2633 15.0622 72.3403 15.1154C72.282 15.0205 72.2237 14.9245 72.1664 14.8286C71.9758 14.5105 71.7914 14.1882 71.6122 13.8627C70.3924 11.6463 69.4456 9.29741 68.6216 6.90887C68.0956 5.38083 67.6799 3.79751 67.0643 2.30181C66.8539 1.79072 66.5945 1.20349 66.0091 1.03974C65.5862 0.92083 65.0633 1.09815 64.6477 1.18785C62.9446 1.555 61.2446 2.02123 59.6196 2.65122C58.8113 2.96413 57.9831 3.30416 57.2633 3.7923C56.6696 4.19595 56.3873 4.63194 56.5738 5.34537C56.8738 6.49166 57.4227 7.60561 57.855 8.70601C58.5238 10.4114 59.179 12.1251 59.7415 13.869C60.1915 15.2646 60.6842 16.801 60.706 18.1559C60.7269 19.4064 62.6696 19.4106 62.6487 18.1559C62.6154 16.0771 61.8519 13.9827 61.1737 12.0447C60.4748 10.0463 59.6758 8.08645 58.9102 6.112C58.7883 5.79909 58.6665 5.48617 58.5571 5.16805C58.5258 5.0773 58.4977 4.98448 58.4665 4.89478C58.3894 4.6747 58.4988 4.61733 58.4383 4.8833C58.4529 4.81864 58.0602 5.60821 58.055 5.60613C58.0696 5.61343 58.3186 5.42255 58.3436 5.4069C58.5613 5.2661 58.7894 5.13989 59.0196 5.02202C59.5227 4.76544 60.0446 4.55475 60.5748 4.36283C61.6706 3.9644 62.7935 3.64001 63.9248 3.35526C64.3362 3.252 64.7498 3.15396 65.1643 3.06426C65.3216 3.02984 65.48 2.9996 65.6373 2.96726C65.832 2.92763 66.0081 2.99229 65.6946 2.94848C65.6685 2.94431 65.0758 2.81915 65.0695 2.62098C65.0716 2.6846 65.1862 2.83062 65.2175 2.89007C65.2425 2.93805 65.306 3.08929 65.2216 2.89111C65.255 2.96934 65.2852 3.04862 65.3143 3.12789C65.3977 3.35214 65.4768 3.57639 65.5539 3.80272C65.9154 4.86766 66.2456 5.94198 66.606 7.00691C67.6227 10.0098 68.8112 12.9845 70.4331 15.7152C70.7122 16.1866 70.9653 16.5204 71.3987 16.8093C71.5268 16.8948 71.6518 16.9824 71.7768 17.0721C71.8508 17.1243 71.9237 17.1785 71.9966 17.2317C72.0601 17.2787 72.4185 17.553 72.208 17.3892C73.4164 18.3269 74.5341 19.3814 75.5716 20.5048C79.2247 24.4589 81.7924 29.3444 83.2413 34.5168C84.033 37.3455 84.2871 39.8613 84.3444 42.8183C84.4892 50.3719 82.9038 57.9933 79.807 64.9149C75.9236 73.5939 69.631 80.9911 61.6352 86.1395C56.3561 89.5387 50.5332 91.8261 44.5395 93.6211C38.5822 95.4058 32.4375 96.6449 26.2198 96.9641C21.9479 97.1831 17.6365 96.988 13.4605 96.1578C11.9615 95.8605 10.4772 95.484 9.02302 95.0115C8.46156 94.829 7.90323 94.6329 7.35219 94.4201C7.12302 94.3314 6.89594 94.2397 6.66886 94.1468C6.41782 94.0436 6.81053 94.2115 6.53241 94.0884C6.41887 94.0384 6.30428 93.9883 6.19074 93.9372C5.61783 93.6785 5.05117 93.4011 4.50638 93.0861C4.39075 93.0193 4.27409 92.9526 4.16263 92.8785C4.14805 92.8691 4.13138 92.8608 4.11888 92.8503C4.59388 93.254 4.147 92.649 4.0918 92.5489C3.99909 92.3789 3.9095 92.2078 3.822 92.0347C3.63138 91.654 3.45951 91.267 3.31889 90.8644C3.00639 89.9695 2.8116 88.8993 3.00639 88.1212C3.02722 88.0388 3.18972 87.5945 3.10326 87.7885C3.15326 87.6779 3.21263 87.5736 3.27097 87.4673C3.30221 87.4109 3.3418 87.3598 3.37618 87.3056C3.4918 87.1272 3.23035 87.4683 3.36264 87.3223C3.42722 87.2503 3.50014 87.1836 3.56368 87.1105C3.76784 86.8748 3.47097 87.2534 3.55742 87.1085C3.62513 86.9958 3.82096 86.8884 3.90638 86.759C4.01992 86.5859 4.07513 86.3408 4.16055 86.1499C4.36992 85.6826 4.62304 85.2341 4.89804 84.8034C5.79075 83.4057 6.98136 82.2146 8.21885 81.1215C13.0584 76.8471 19.1886 74.4169 25.0677 71.9564C30.9958 69.476 36.752 66.8038 41.753 62.6932C46.5228 58.7725 50.4665 53.7764 52.6686 47.9719C53.9467 44.6029 54.4675 41.0337 54.879 37.4707C55.2936 33.8774 55.4967 30.2206 56.8988 26.8433C58.1456 23.8404 60.0633 21.1306 62.3623 18.8463C63.2519 17.9608 61.8779 16.5851 60.9894 17.4685Z" fill="#2B2B2B"/>
<path d="M3.63969 88.2349C3.7824 88.5833 3.90427 88.94 4.00115 89.3051C4.04281 89.4615 4.07926 89.618 4.11156 89.7765C4.13343 89.8819 4.15323 89.9882 4.17094 90.0936C4.17927 90.1457 4.22614 90.3877 4.18343 90.1541C4.24593 90.4931 4.25114 90.856 4.25218 91.2002C4.25322 91.389 4.24802 91.5768 4.23552 91.7656C4.23031 91.8459 4.22406 91.9262 4.21677 92.0065C4.2126 92.0524 4.17093 92.4029 4.20531 92.1484C4.16885 92.4195 4.15844 92.6511 4.30323 92.8983C4.42094 93.0996 4.65218 93.2926 4.88343 93.3458C5.33968 93.4501 6.0053 93.206 6.07821 92.6667C6.30425 90.9906 6.15634 89.2925 5.51155 87.7176C5.41155 87.4735 5.30217 87.2753 5.06468 87.1366C4.85634 87.0146 4.5501 86.9635 4.31573 87.0386C3.86677 87.1856 3.43344 87.7311 3.63969 88.2349Z" fill="#2B2B2B"/>
<path d="M64.4143 18.8192C66.0726 18.2977 67.7653 17.8961 69.4799 17.6166C69.983 17.5342 70.308 16.8823 70.158 16.4202C69.982 15.8747 69.5018 15.6536 68.9632 15.7412C67.2476 16.0208 65.5549 16.4223 63.8977 16.9438C63.4133 17.0961 63.0539 17.6281 63.2195 18.1402C63.3768 18.6273 63.8945 18.983 64.4143 18.8192Z" fill="#2B2B2B"/>
<path d="M62.8821 6.93912C63.7956 9.38398 64.7091 11.8288 65.6227 14.2737C65.806 14.765 66.2789 15.1008 66.8174 14.9527C67.2893 14.8234 67.681 14.2508 67.4956 13.7564C66.582 11.3115 65.6685 8.86664 64.755 6.42178C64.5716 5.93051 64.0977 5.59465 63.5602 5.74276C63.0893 5.8721 62.6977 6.44473 62.8821 6.93912Z" fill="#2B2B2B"/>
<path d="M70.3237 22.9131C72.8758 37.0827 73.7632 52.6332 66.7779 65.7451C60.4873 77.5522 49.0644 85.8892 36.3926 89.691C28.4125 92.0858 20.0157 92.794 11.723 92.1818C10.4761 92.09 10.4813 94.0352 11.723 94.127C26.4781 95.218 41.8936 92.042 53.9696 83.1762C59.3123 79.2534 63.9498 74.3564 67.3643 68.6562C71.1258 62.3782 73.1393 55.2794 73.8393 48.022C74.6643 39.4629 73.7153 30.8245 72.1976 22.3958C71.9758 21.166 70.1029 21.6876 70.3237 22.9131Z" fill="#2B2B2B"/>
<path d="M77.0861 32.6717C77.6653 40.9148 78.2622 49.4009 75.8351 57.4228C75.1986 59.5276 74.3528 61.548 73.2705 63.4619C72.6539 64.5529 74.332 65.5344 74.9476 64.4434C79.0892 57.1172 79.7809 48.533 79.4778 40.2806C79.384 37.7408 79.207 35.2052 79.0288 32.6707C78.9413 31.4295 76.9976 31.4201 77.0861 32.6717Z" fill="#2B2B2B"/>
<path d="M10.1793 86.8644C13.7407 83.4485 18.3896 81.6127 22.9635 79.9866C27.9281 78.2229 32.8229 76.4456 37.4093 73.8088C40.0957 72.264 42.6447 70.5024 45.0686 68.5728C45.4822 68.2432 45.4061 67.5423 45.0686 67.197C44.6676 66.7861 44.103 66.8716 43.6947 67.197C39.4218 70.5994 34.6437 73.4239 29.5895 75.4954C24.9729 77.3874 20.124 78.687 15.623 80.8659C13.1386 82.0685 10.8022 83.5726 8.80426 85.4886C7.90114 86.3564 9.27613 87.7301 10.1793 86.8644Z" fill="#2B2B2B"/>
<path d="M52.3248 60.483C56.2602 55.8311 58.9727 50.2207 60.0935 44.2222C60.3227 42.9987 58.4498 42.4741 58.2196 43.7049C57.1612 49.3675 54.6727 54.7067 50.9498 59.1073C50.1477 60.0564 51.5154 61.4395 52.3248 60.483Z" fill="#2B2B2B"/>
<path d="M59.7529 65.7159C60.5008 65.0766 61.1112 64.2369 61.7321 63.4776C62.4227 62.6327 63.0946 61.766 63.6873 60.8481C64.8331 59.0729 65.631 57.1047 65.8175 54.9894C65.8633 54.4658 65.3383 54.0163 64.8456 54.0163C64.2821 54.0163 63.9206 54.4637 63.8748 54.9894C63.7143 56.8158 62.906 58.5086 61.9102 60.0199C61.3987 60.7949 60.8321 61.5282 60.2425 62.2437C59.656 62.9561 59.0831 63.7384 58.38 64.3402C57.981 64.6813 58.03 65.3644 58.38 65.7159C58.7748 66.1123 59.3529 66.0581 59.7529 65.7159Z" fill="#2B2B2B"/>
<defs>
<filter id="filter0_d_436_129272" x="1.95346" y="1.97244" width="87.3705" height="100.046" filterUnits="userSpaceOnUse" color-interpolation-filters="sRGB">
<feFlood flood-opacity="0" result="BackgroundImageFix"/>
<feColorMatrix in="SourceAlpha" type="matrix" values="0 0 0 0 0 0 0 0 0 0 0 0 0 0 0 0 0 0 127 0" result="hardAlpha"/>
<feOffset dx="4" dy="4"/>
<feComposite in2="hardAlpha" operator="out"/>
<feColorMatrix type="matrix" values="0 0 0 0 0 0 0 0 0 0 0 0 0 0 0 0 0 0 1 0"/>
<feBlend mode="normal" in2="BackgroundImageFix" result="effect1_dropShadow_436_129272"/>
<feBlend mode="normal" in="SourceGraphic" in2="effect1_dropShadow_436_129272" result="shape"/>
</filter>
</defs>
</svg>
